<?xml version="1.0" encoding="utf-8"?>
<!-- Generator: Adobe Illustrator 19.2.1, SVG Export Plug-In . SVG Version: 6.00 Build 0)  -->
<svg version="1.1" xmlns="http://www.w3.org/2000/svg" xmlns:xlink="http://www.w3.org/1999/xlink" x="0px" y="0px"
	 viewBox="0 0 24 24" style="enable-background:new 0 0 24 24;" xml:space="preserve">
<style type="text/css">
	.st0{fill:#42AAF3;}
	.st1{fill:#F28A1F;}
</style>
<g id="Layer_1">
	<g id="Layer_1_1_">
		<path class="st0" d="M20,11c0-4.9-3.5-9.1-8.3-10l-0.2,0l-0.2,0C6.5,1.9,3,6.1,3,11c0,4.6,3.1,8.6,7.5,9.8h2
			C16.9,19.6,20,15.6,20,11z M12.5,18.7h-2C7.3,17.6,5,14.5,5,11c0-3.9,2.7-7.2,6.5-8c3.8,0.8,6.5,4.1,6.5,8
			C18,14.5,15.7,17.6,12.5,18.7z"/>
	</g>
</g>
<g id="Layer_1_copy">
	<g id="Layer_1_3_">
		<path class="st1" d="M10.5,20.8V22c0,0.6,0.4,1,1,1s1-0.4,1-1v-1.2H10.5z M12.5,20.8v-5.1l4.4-4.4c0.2-0.2,0.2-0.5,0-0.7
			s-0.5-0.2-0.7,0l-3.6,3.6v-3.6l2.4-2.4c0.2-0.2,0.2-0.5,0-0.7s-0.5-0.2-0.7,0l-1.6,1.6V6c0-0.6-0.4-1-1-1s-1,0.4-1,1v3.3L8.9,7.6
			c-0.2-0.2-0.5-0.2-0.7,0S8,8.2,8.1,8.4l2.4,2.4v3.6l-3.6-3.6c-0.2-0.2-0.5-0.2-0.7,0s-0.2,0.5,0,0.7l4.4,4.4l0,5.1H12.5z"/>
	</g>
</g>
</svg>
